:version 1.10
:name ASF
:units
  mass 1
  length 1
  angle deg
:documentation
  ASF file generated by Kaydara
:root
  axis xyz
  order  tx ty tz rx ry rz
  position 0 0 0
  orientation 0 0 0
:bonedata
  begin
    id 1
    name SpineDummy
    direction 0.999998 -0.00179978 1.38929e-006
    length 3.60008
    axis 0 0 0 xyz
  end
  begin
    id 2
    name Spine
    direction 0.964365 0.262802 0.0305839
    length 8.13928
    axis 1.33928 -1.75354 15.2838 xyz
    dof rx ry rz
  end
  begin
    id 3
    name Spine1
    direction 0.811168 0.572065 0.12144
    length 7.14954
    axis 2.2224 -6.9761 35.2157 xyz
    dof rx ry rz
  end
  begin
    id 4
    name Neck
    direction 0 0 0
    length 0
    axis 2.2224 -6.9761 35.2157 xyz
    dof rx ry rz
  end
  begin
    id 5
    name HeadDummy
    direction 0.810939 0.572387 0.121455
    length 3.55534
    axis 2.2224 -6.9761 35.2157 xyz
  end
  begin
    id 6
    name Head
    direction 0.998226 -0.000232542 0.0595419
    length 7.35666
    axis -3.03688 -3.41352 -0.0133467 xyz
    dof rx ry rz
  end
  begin
    id 7
    name R_ClavicleDummy
    direction 0.531669 -0.194489 -0.824319
    length 2.49392
    axis 2.2224 -6.9761 35.2157 xyz
  end
  begin
    id 8
    name R_Clavicle
    direction -0.155119 0.0480802 -0.986725
    length 4.485
    axis -54.2764 80.6538 162.779 xyz
    dof rx ry rz
  end
  begin
    id 9
    name R_UpperArm
    direction -0.955567 0.200068 -0.216484
    length 10.1122
    axis -72.9943 12.5026 168.175 xyz
    dof rx ry rz
  end
  begin
    id 10
    name R_Forearm
    direction -0.61433 0.385743 0.688332
    length 9.39148
    axis -117.015 -43.4982 147.875 xyz
    dof rx ry rz
  end
  begin
    id 11
    name R_Hand
    direction -0.699429 0.0170333 0.714499
    length 3.66324
    axis -45.0303 -36.7097 175.478 xyz
    dof rx ry rz
  end
  begin
    id 12
    name L_ClavicleDummy
    direction 0.40287 -0.36502 0.839319
    length 2.49392
    axis 2.2224 -6.9761 35.2157 xyz
  end
  begin
    id 13
    name L_Clavicle
    direction -0.231271 -0.0726419 0.970174
    length 4.485
    axis 18.4357 -75.9711 -162.563 xyz
    dof rx ry rz
  end
  begin
    id 14
    name L_UpperArm
    direction -0.917494 0.144359 0.370629
    length 10.1122
    axis 56.0417 -21.7544 171.058 xyz
    dof rx ry rz
  end
  begin
    id 15
    name L_Forearm
    direction -0.496786 0.615074 -0.612281
    length 9.39148
    axis 89.8094 37.7546 128.927 xyz
    dof rx ry rz
  end
  begin
    id 16
    name L_Hand
    direction -0.409932 0.64962 -0.640274
    length 3.66324
    axis -0.424369 32.133 128.52 xyz
    dof rx ry rz
  end
  begin
    id 17
    name L_ThighDummy
    direction -1.84081e-006 1.87549e-006 1
    length 3.13049
    axis 0 0 0 xyz
  end
  begin
    id 18
    name L_Thigh
    direction -0.947739 0.307978 0.083308
    length 17.9961
    axis 173.219 -4.77873 161.998 xyz
    dof rx ry rz
  end
  begin
    id 19
    name L_Calf
    direction -0.728814 -0.684427 0.0197583
    length 13.3367
    axis 167.331 -1.13214 -136.799 xyz
    dof rx ry rz
  end
  begin
    id 20
    name L_Foot
    direction -0.9028 0.418719 0.0981191
    length 5.8674
    axis 163.436 11.5135 -155.37 xyz
    dof rx ry rz
  end
  begin
    id 21
    name L_Toe0
    direction -0.35341 0.886259 0.299411
    length 4.75286
    axis 169.316 -17.4222 111.74 xyz
    dof rx ry rz
  end
  begin
    id 22
    name R_ThighDummy
    direction 9.32778e-007 -8.82053e-007 -1
    length 3.13049
    axis 0 0 0 xyz
  end
  begin
    id 23
    name R_Thigh
    direction -0.925064 0.37528 -0.0585023
    length 17.9961
    axis -178.698 3.35385 157.919 xyz
    dof rx ry rz
  end
  begin
    id 24
    name R_Calf
    direction -0.68969 -0.718776 -0.0876886
    length 13.3367
    axis -160.504 5.03065 -133.817 xyz
    dof rx ry rz
  end
  begin
    id 25
    name R_Foot
    direction -0.857405 0.418858 -0.299022
    length 5.8674
    axis -161.328 4.38911 -154.413 xyz
    dof rx ry rz
  end
  begin
    id 26
    name R_Toe0
    direction -0.100745 0.952789 -0.286433
    length 4.75286
    axis 171.683 16.6445 96.0359 xyz
    dof rx ry rz
  end
:hierarchy
  begin
    root SpineDummy L_ThighDummy R_ThighDummy
    SpineDummy Spine
    Spine Spine1
    Spine1 Neck
    Neck HeadDummy R_ClavicleDummy L_ClavicleDummy
    HeadDummy Head
    R_ClavicleDummy R_Clavicle
    R_Clavicle R_UpperArm
    R_UpperArm R_Forearm
    R_Forearm R_Hand
    L_ClavicleDummy L_Clavicle
    L_Clavicle L_UpperArm
    L_UpperArm L_Forearm
    L_Forearm L_Hand
    L_ThighDummy L_Thigh
    L_Thigh L_Calf
    L_Calf L_Foot
    L_Foot L_Toe0
    R_ThighDummy R_Thigh
    R_Thigh R_Calf
    R_Calf R_Foot
    R_Foot R_Toe0
  end

:SAMPLES-PER-SECOND 30
:FULLY-SPECIFIED
:DEGREES
143
root  -15.2686 19.4412 -10.9077 174.471 -37.6256 41.7567
Spine  -3.15267 1.45505 20.4735
Spine1  -7.16134 10.8559 -20.2348
Neck  3.97569e-016 0 -2.38542e-015
Head  -12.3572 -4.54225 6.17311
R_Clavicle  0.127142 -4.24628 0.315247
R_UpperArm  47.7577 10.3371 3.72808
R_Forearm  28.3231 -14.323 7.28368
R_Hand  -36.8975 19.0223 -130.779
L_Clavicle  -0.337296 14.2862 -4.21902
L_UpperArm  -34.4726 -5.41653 2.05836
L_Forearm  -58.6205 -3.00584 -5.72043
L_Hand  16.2754 -43.9587 -42.7647
L_Thigh  22.5599 16.2104 20.2469
L_Calf  0.269053 3.20487 -24.5504
L_Foot  7.85548 5.49664 24.2792
L_Toe0  0.505156 0.034446 -6.1361
R_Thigh  -19.1605 -25.7374 10.49
R_Calf  2.91315 -5.83813 -18.4464
R_Foot  6.8872 17.3931 29.4825
R_Toe0  15.946 -7.48252 8.17971
144
root  -14.9886 19.6376 -10.9555 168.031 -30.3777 40.1454
Spine  1.19538 7.97231 22.0376
Spine1  -3.29668 2.16288 -21.368
Neck  3.97569e-016 0 -2.38542e-015
Head  -14.6728 -7.73699 2.99881
R_Clavicle  -0.0538877 -6.83504 -1.30044
R_UpperArm  45.294 9.63018 8.47508
R_Forearm  29.1545 -11.6362 2.83078
R_Hand  -44.672 25.5134 -130.102
L_Clavicle  -0.278894 12.9744 -3.18011
L_UpperArm  -32.2405 -6.24538 2.24556
L_Forearm  -59.1543 -2.74252 -7.52182
L_Hand  21.1309 -47.4345 -49.6658
L_Thigh  22.0522 7.17691 17.6916
L_Calf  1.09044 4.6579 -36.8009
L_Foot  8.49186 4.79789 27.6542
L_Toe0  0.505156 0.034446 -6.1361
R_Thigh  -16.9223 -19.5505 8.31087
R_Calf  -5.36377 -2.16043 -6.64597
R_Foot  10.8978 22.521 35.8534
R_Toe0  3.45758 -1.5498 9.85746
145
root  -14.5956 19.8687 -10.9166 159.035 -21.6215 39.3345
Spine  5.46175 13.8205 24.1828
Spine1  0.16834 -5.75009 -21.4781
Neck  3.97569e-016 0 -2.38542e-015
Head  -13.7293 -8.94392 0.547056
R_Clavicle  -0.0637516 -8.67382 -1.82311
R_UpperArm  42.9723 7.8201 14.1288
R_Forearm  32.1795 -5.2607 -5.42837
R_Hand  -52.4699 41.8681 -118.417
L_Clavicle  -0.193242 10.9777 -2.53109
L_UpperArm  -32.3453 -5.94542 3.41841
L_Forearm  -57.3205 -2.05576 -6.76461
L_Hand  23.5626 -50.5863 -50.9819
L_Thigh  18.4264 -3.20983 16.0765
L_Calf  3.23277 5.56701 -45.5668
L_Foot  8.38801 3.05529 30.4402
L_Toe0  0.476384 0.0352401 -6.1626
R_Thigh  -13.5297 -11.5906 5.87101
R_Calf  -13.5244 0.83938 2.70757
R_Foot  9.04232 19.919 34.8522
R_Toe0  -0.03254 0.37331 6.48833
146
root  -14.1223 20.0944 -10.7237 147.608 -11.9943 37.6714
Spine  8.81132 16.8102 25.7447
Spine1  2.82906 -10.0807 -21.7465
Neck  3.97569e-016 0 -2.38542e-015
Head  -8.46948 -7.24173 0.213934
R_Clavicle  -0.0587162 -8.33949 -1.68905
R_UpperArm  41.9125 14.5813 7.94596
R_Forearm  20.1322 -17.1099 2.54586
R_Hand  -12.2562 58.3826 -39.6866
L_Clavicle  -0.237473 11.937 -2.6586
L_UpperArm  -34.302 -5.36347 9.43129
L_Forearm  -54.3346 -1.4038 -4.89193
L_Hand  22.7336 -51.2623 -48.6031
L_Thigh  14.5671 -12.4463 17.7617
L_Calf  6.70178 5.64 -46.3938
L_Foot  7.5574 1.50253 30.4584
L_Toe0  0.783277 0.0267689 -5.87991
R_Thigh  -9.13236 -3.46439 4.06443
R_Calf  -27.5185 3.10541 9.84598
R_Foot  6.38124 16.9794 26.3901
R_Toe0  -3.26898 2.31244 11.9402
147
root  -13.7275 20.0472 -10.3527 133.625 -1.8012 35.6513
Spine  11.3305 18.4667 25.9227
Spine1  4.95465 -12.9103 -19.8616
Neck  3.97569e-016 0 -2.38542e-015
Head  -0.560313 -2.98364 2.3066
R_Clavicle  -0.0302478 -6.99344 -1.15733
R_UpperArm  36.0359 25.9748 -17.1435
R_Forearm  -12.403 -50.9457 43.4252
R_Hand  -0.409042 8.03769 -7.81838
L_Clavicle  -0.363042 14.4464 -3.29188
L_UpperArm  -37.9585 -4.82791 19.1157
L_Forearm  -51.53 -1.23279 -2.68652
L_Hand  19.2169 -49.4752 -43.4303
L_Thigh  12.7953 -16.9686 20.9016
L_Calf  10.2829 5.0721 -40.7125
L_Foot  7.67694 1.87035 30.1626
L_Toe0  1.56963 0.00505814 -5.15552
R_Thigh  0.185547 2.81768 2.39758
R_Calf  -41.0153 2.84473 9.03476
R_Foot  6.64464 18.9623 14.9221
R_Toe0  -1.23135 1.92904 8.85895
148
root  -13.4561 19.5775 -9.73262 118.114 7.27193 35.1034
Spine  12.8874 18.8643 26.2368
Spine1  6.96876 -17.702 -17.4886
Neck  3.97569e-016 0 -2.38542e-015
Head  7.53789 2.23288 7.28224
R_Clavicle  -0.0450812 -5.36621 -0.946829
R_UpperArm  35.7523 22.35 -20.1004
R_Forearm  -11.2368 -46.7257 34.4571
R_Hand  0.75511 1.59951 8.19017
L_Clavicle  -0.567675 17.9912 -3.12068
L_UpperArm  -42.0037 -5.28477 29.6105
L_Forearm  -48.2634 -0.69441 -0.4152
L_Hand  15.2198 -48.3432 -35.7819
L_Thigh  11.2701 -18.504 23.4955
L_Calf  8.40347 3.95018 -30.617
L_Foot  8.25674 3.59291 28.9503
L_Toe0  0.418841 0.0368284 -6.2156
R_Thigh  9.97491 4.7936 0.548689
R_Calf  -36.883 -1.33526 -4.04386
R_Foot  7.14827 21.6975 6.1522
R_Toe0  5.6098 -1.33251 -12.0761
149
root  -13.2764 18.6306 -9.06481 102.653 14.288 37.2345
Spine  13.8161 17.7463 26.2283
Spine1  9.55631 -25.6014 -15.7129
Neck  3.97569e-016 0 -2.38542e-015
Head  13.7935 6.8972 13.7738
R_Clavicle  -0.0716191 -3.87825 -0.869209
R_UpperArm  35.0751 21.048 -23.1863
R_Forearm  -10.2123 -44.1578 30.4632
R_Hand  0.448442 0.270093 4.73665
L_Clavicle  -0.66375 19.8892 -2.70895
L_UpperArm  -45.1149 -4.92389 38.5032
L_Forearm  -45.2306 -0.464957 1.04625
L_Hand  13.8083 -49.7137 -31.4874
L_Thigh  8.86218 -19.2594 26.3263
L_Calf  -0.544142 2.19126 -16.5237
L_Foot  8.61692 7.29539 24.1543
L_Toe0  0.505156 0.034446 -6.1361
R_Thigh  13.4081 2.68789 -0.261854
R_Calf  -15.6151 -7.23666 -23.0824
R_Foot  5.55544 18.053 4.20935
R_Toe0  -2.37719 -0.203726 -17.9213
150
root  -12.885 17.4573 -8.41147 88.5472 20.709 40.9172
Spine  14.8752 15.501 25.9903
Spine1  12.5994 -33.0826 -14.8884
Neck  3.97569e-016 0 -2.38542e-015
Head  18.8787 9.65512 19.8905
R_Clavicle  -0.129327 -1.97229 -0.919981
R_UpperArm  34.7103 21.9972 -24.9996
R_Forearm  -8.87599 -41.3615 28.0828
R_Hand  0.307727 6.43927 -7.28607
L_Clavicle  -0.665517 20.1548 -2.35955
L_UpperArm  -46.0558 -1.49144 46.3432
L_Forearm  -44.8097 -1.62264 0.409243
L_Hand  16.3564 -51.2331 -35.6974
L_Thigh  8.83686 -17.7981 27.7918
L_Calf  -7.44449 0.0231014 -0.321187
L_Foot  8.965 14.1214 16.382
L_Toe0  0.505156 0.034446 -6.1361
R_Thigh  13.6883 -1.55308 -1.12405
R_Calf  -11.1965 -12.0442 -41.2962
R_Foot  5.1726 15.6783 13.3819
R_Toe0  -1.63125 -0.293637 -17.4655
151
root  -12.0409 16.6465 -7.72128 77.4538 28.065 43.9129
Spine  16.019 13.5754 26.3678
Spine1  15.0984 -37.1397 -13.9262
Neck  3.97569e-016 0 -2.38542e-015
Head  23.1001 10.3897 24.7472
R_Clavicle  -0.146477 0.656396 -0.663795
R_UpperArm  35.5293 25.3153 -25.9331
R_Forearm  -8.2366 -38.6938 27.591
R_Hand  0.025211 9.95371 -12.0205
L_Clavicle  -0.652391 20.1224 -2.05769
L_UpperArm  -45.3213 3.79318 52.8953
L_Forearm  -45.5149 -2.52586 0.0308298
L_Hand  17.1874 -48.9639 -39.547
L_Thigh  13.449 -13.6691 26.4144
L_Calf  -4.93449 -1.67233 12.3484
L_Foot  6.52637 17.6456 6.13795
L_Toe0  0.505156 0.034446 -6.1361
R_Thigh  17.8475 -4.67189 -3.69965
R_Calf  -22.3684 -15.1659 -56.9967
R_Foot  6.31252 17.5156 19.933
R_Toe0  -2.90129 -0.20331 -16.3295
